<svg xmlns="http://www.w3.org/2000/svg" viewBox="0 0 512 512" width="512" height="512">
<defs>

  <!-- Warm amber background glow (like the reference photo's backlight) -->
  <radialGradient id="bgAmber" cx="50%" cy="28%" r="58%">
    <stop offset="0%"  stop-color="#a06010"/>
    <stop offset="35%" stop-color="#4a2808"/>
    <stop offset="70%" stop-color="#140e06"/>
    <stop offset="100%" stop-color="#050504"/>
  </radialGradient>

  <!-- Head halo glow -->
  <radialGradient id="haloGrad" cx="50%" cy="50%" r="50%">
    <stop offset="0%"  stop-color="#e09820" stop-opacity="0.85"/>
    <stop offset="60%" stop-color="#c07010" stop-opacity="0.35"/>
    <stop offset="100%" stop-color="#804008" stop-opacity="0"/>
  </radialGradient>

  <!-- Cape: dark navy, subtle sheen -->
  <linearGradient id="capeMain" x1="20%" y1="0%" x2="80%" y2="100%">
    <stop offset="0%"  stop-color="#1e1e30"/>
    <stop offset="40%" stop-color="#121224"/>
    <stop offset="100%" stop-color="#06060e"/>
  </linearGradient>
  <linearGradient id="capeSide" x1="0%" y1="0%" x2="100%" y2="0%">
    <stop offset="0%"  stop-color="#060610"/>
    <stop offset="50%" stop-color="#161628"/>
    <stop offset="100%" stop-color="#060610"/>
  </linearGradient>

  <!-- Skull face: warm golden ivory -->
  <radialGradient id="skullBase" cx="45%" cy="35%" r="62%">
    <stop offset="0%"  stop-color="#f8ebb0"/>
    <stop offset="55%" stop-color="#ddb840"/>
    <stop offset="100%" stop-color="#9a7010"/>
  </radialGradient>

  <!-- Eye glow: warm amber-orange (friendly, not eerie) -->
  <radialGradient id="eyeWarm" cx="50%" cy="50%" r="50%">
    <stop offset="0%"  stop-color="#ffee80"/>
    <stop offset="45%" stop-color="#ff9900" stop-opacity="0.9"/>
    <stop offset="100%" stop-color="#cc4400" stop-opacity="0"/>
  </radialGradient>

  <!-- Broom handle: polished wood -->
  <linearGradient id="broomHandle" x1="0%" y1="0%" x2="100%" y2="0%">
    <stop offset="0%"  stop-color="#5e3015"/>
    <stop offset="30%" stop-color="#a86428"/>
    <stop offset="55%" stop-color="#c07a32"/>
    <stop offset="100%" stop-color="#6a3818"/>
  </linearGradient>

  <!-- Bristles: straw yellow-brown -->
  <linearGradient id="bristleGrad" x1="0%" y1="0%" x2="0%" y2="100%">
    <stop offset="0%"  stop-color="#e0b030"/>
    <stop offset="55%" stop-color="#b08020"/>
    <stop offset="100%" stop-color="#7a5010"/>
  </linearGradient>

  <!-- Belt leather -->
  <linearGradient id="beltLeather" x1="0%" y1="0%" x2="0%" y2="100%">
    <stop offset="0%"  stop-color="#2a2018"/>
    <stop offset="100%" stop-color="#150e08"/>
  </linearGradient>

  <!-- Belt buckle: warm gold -->
  <radialGradient id="buckleGold" cx="38%" cy="32%" r="62%">
    <stop offset="0%"  stop-color="#f0d060"/>
    <stop offset="55%" stop-color="#c09018"/>
    <stop offset="100%" stop-color="#6a5008"/>
  </radialGradient>

  <!-- Metal ferrule on broom -->
  <linearGradient id="ferrule" x1="0%" y1="0%" x2="0%" y2="100%">
    <stop offset="0%"  stop-color="#c8c8d8"/>
    <stop offset="50%" stop-color="#808090"/>
    <stop offset="100%" stop-color="#484858"/>
  </linearGradient>

  <!-- Boot shine -->
  <linearGradient id="bootShine" x1="15%" y1="0%" x2="85%" y2="100%">
    <stop offset="0%"  stop-color="#222230"/>
    <stop offset="100%" stop-color="#080810"/>
  </linearGradient>

  <!-- Filters -->
  <filter id="haloBlur" x="-60%" y="-60%" width="220%" height="220%">
    <feGaussianBlur stdDeviation="16"/>
  </filter>
  <filter id="figShadow" x="-12%" y="-5%" width="124%" height="120%">
    <feDropShadow dx="0" dy="10" stdDeviation="18" flood-color="#000000" flood-opacity="0.75"/>
  </filter>
  <filter id="eyeGlow" x="-180%" y="-180%" width="460%" height="460%">
    <feGaussianBlur stdDeviation="5" result="b"/>
    <feMerge><feMergeNode in="b"/><feMergeNode in="SourceGraphic"/></feMerge>
  </filter>
  <filter id="softGlow" x="-30%" y="-30%" width="160%" height="160%">
    <feGaussianBlur stdDeviation="5" result="b"/>
    <feMerge><feMergeNode in="b"/><feMergeNode in="SourceGraphic"/></feMerge>
  </filter>

  <clipPath id="rim"><circle cx="256" cy="256" r="250"/></clipPath>
</defs>

<!-- ═══ BACKGROUND ═══ -->
<circle cx="256" cy="256" r="256" fill="#050505"/>
<circle cx="256" cy="256" r="254" fill="url(#bgAmber)" clip-path="url(#rim)"/>

<!-- Foliage blobs at edges (like reference photo) -->
<ellipse cx="55"  cy="175" rx="95" ry="210" fill="#080e06" opacity="0.92" clip-path="url(#rim)"/>
<ellipse cx="38"  cy="240" rx="65" ry="160" fill="#0a1208" opacity="0.80" clip-path="url(#rim)"/>
<ellipse cx="457" cy="175" rx="95" ry="210" fill="#080e06" opacity="0.92" clip-path="url(#rim)"/>
<ellipse cx="474" cy="240" rx="65" ry="160" fill="#0a1208" opacity="0.80" clip-path="url(#rim)"/>
<!-- Grass wisps at bottom edges -->
<path d="M 82 460 C 86 445,90 438,88 428 M 95 462 C 98 448,104 440,100 430 M 420 462 C 416 448,410 440,415 430 M 432 460 C 428 445,423 438,425 428" stroke="#1a2010" stroke-width="2.5" fill="none" opacity="0.7" clip-path="url(#rim)"/>

<!-- Sandy ground path at bottom -->
<ellipse cx="256" cy="478" rx="232" ry="38" fill="#2e1e0a" opacity="0.75" clip-path="url(#rim)"/>
<ellipse cx="256" cy="492" rx="215" ry="28" fill="#1e1208" opacity="0.85" clip-path="url(#rim)"/>

<!-- HEAD HALO — warm amber backlight behind skull (very characteristic of reference) -->
<ellipse cx="256" cy="148" rx="130" ry="130" fill="url(#haloGrad)" filter="url(#haloBlur)" clip-path="url(#rim)"/>
<ellipse cx="256" cy="145" rx="75"  ry="75"  fill="#d08010" opacity="0.28" filter="url(#haloBlur)" clip-path="url(#rim)"/>

<!-- ═══════════════════════════════════════════════════
     MAIN FIGURE (drop-shadowed group)
     ═══════════════════════════════════════════════════ -->
<g filter="url(#figShadow)" clip-path="url(#rim)">

<!-- ── BROOM SHAFT (drawn first — behind cloak) ── -->
<!-- Handle shadow -->
<line x1="183" y1="307" x2="90" y2="450" stroke="#1a0a03" stroke-width="16" stroke-linecap="round" opacity="0.6"/>
<!-- Handle main wood -->
<line x1="183" y1="307" x2="90" y2="450" stroke="url(#broomHandle)" stroke-width="10" stroke-linecap="round"/>
<!-- Handle extends slightly above hand toward background -->
<line x1="183" y1="307" x2="220" y2="248" stroke="url(#broomHandle)" stroke-width="10" stroke-linecap="round"/>
<line x1="220" y1="248" x2="228" y2="236" stroke="url(#broomHandle)" stroke-width="10" stroke-linecap="round" opacity="0.8"/>
<!-- Wood grain highlights -->
<line x1="184" y1="301" x2="91" y2="444"  stroke="#d89040" stroke-width="2.2" stroke-linecap="round" opacity="0.28"/>
<line x1="180" y1="312" x2="87" y2="456"  stroke="#4a2008" stroke-width="2"   stroke-linecap="round" opacity="0.28"/>
<line x1="184" y1="301" x2="221" y2="242" stroke="#d89040" stroke-width="2.2" stroke-linecap="round" opacity="0.28"/>


<!-- ── CAPE BACK — large dramatic silhouette ── -->
<path d="
  M 256 205
  C 230 204, 200 208, 176 220
  C 148 234, 126 256, 112 284
  C 96 316, 88 352, 84 390
  C 80 422, 80 450, 82 472
  L 430 472
  C 432 450, 432 422, 428 390
  C 424 352, 416 316, 400 284
  C 386 256, 364 234, 336 220
  C 312 208, 282 204, 256 205 Z
" fill="url(#capeMain)"/>

<!-- Cape subtle center sheen -->
<path d="
  M 256 205 C 248 210, 243 225, 243 250 L 243 472 L 268 472 L 268 250
  C 268 225, 264 210, 256 205 Z
" fill="#202032" opacity="0.3"/>

<!-- Cape left edge depth -->
<path d="M 176 220 L 148 244 C 126 265, 112 296, 104 330 L 100 365 C 106 332, 116 298, 132 272 C 144 250, 160 234, 176 222 Z" fill="#1a1a2c" opacity="0.5"/>

<!-- ── CAPE RIGHT TATTERED HEM ── -->
<path d="
  M 400 284 C 418 310, 428 344, 428 390
  C 428 420, 428 448, 428 472
  L 414 472
  /* tattered claws ripping upward */
  L 420 450 L 402 458 L 415 433 L 396 442
  L 412 416 L 390 427 L 406 400
  L 382 412 L 400 384
  L 378 394 C 380 365, 384 338, 392 316
  C 396 300, 400 290, 400 284 Z
" fill="#0c0c1c"/>

<!-- ── BODY CENTER (torso between cape panels) ── -->
<path d="
  M 225 210 C 220 224, 216 242, 216 264 L 216 316 L 296 316 L 296 264
  C 296 242, 292 224, 287 210 C 270 202, 242 202, 225 210 Z
" fill="#131320"/>

<!-- ── LEFT ARM + SLEEVE ── -->
<path d="
  M 220 218 C 208 224, 196 236, 186 252 C 178 266, 174 282, 176 300
  L 185 304 C 184 288, 188 273, 196 260 C 204 247, 215 237, 224 232 Z
" fill="#111122"/>

<!-- ── RIGHT ARM + SLEEVE (hanging open) ── -->
<path d="
  M 292 218 C 304 224, 316 236, 322 252 C 328 266, 328 284, 322 302
  L 313 298 C 318 282, 317 265, 312 252 C 307 240, 298 230, 288 226 Z
" fill="#111122"/>

<!-- ── CAPE LEFT FRONT PANEL ── -->
<path d="
  M 218 212 C 208 228, 202 252, 198 280 C 194 308, 192 340, 193 370
  C 194 396, 196 422, 198 458 L 232 458
  C 230 424, 228 398, 226 372 C 224 343, 224 312, 226 285
  C 228 260, 232 238, 236 218 Z
" fill="#161628"/>
<!-- Panel highlight (lighter center strip) -->
<path d="M 232 218 C 229 242, 228 266, 228 292 L 228 380 L 234 380 L 234 292 C 234 266, 234 242, 233 218 Z" fill="#202036" opacity="0.4"/>

<!-- ── CAPE RIGHT FRONT PANEL ── -->
<path d="
  M 294 212 C 304 228, 310 252, 314 280 C 318 308, 320 340, 319 370
  C 318 396, 316 422, 314 458 L 280 458
  C 282 424, 284 398, 286 372 C 288 343, 288 312, 286 285
  C 284 260, 280 238, 276 218 Z
" fill="#161628"/>

<!-- ── BELT ── -->
<rect x="210" y="292" width="92" height="20" rx="5" fill="url(#beltLeather)"/>
<!-- Belt stitching top and bottom -->
<line x1="212" y1="294.5" x2="300" y2="294.5" stroke="#504030" stroke-width="1.5" opacity="0.55"/>
<line x1="212" y1="309.5" x2="300" y2="309.5" stroke="#504030" stroke-width="1.5" opacity="0.55"/>
<!-- Belt stitch marks -->
<g stroke="#403020" stroke-width="1" opacity="0.4">
  <line x1="220" y1="293" x2="220" y2="310"/>
  <line x1="230" y1="293" x2="230" y2="310"/>
  <line x1="282" y1="293" x2="282" y2="310"/>
  <line x1="292" y1="293" x2="292" y2="310"/>
</g>
<!-- Belt buckle (round, ornate) -->
<circle cx="256" cy="302" r="14"  fill="#0e0e1a"/>
<circle cx="256" cy="302" r="12"  fill="url(#buckleGold)"/>
<circle cx="256" cy="302" r="8.5" fill="none" stroke="#6a4c08" stroke-width="2"/>
<circle cx="256" cy="302" r="4"   fill="#e0b820" opacity="0.75"/>
<!-- Buckle star/symbol -->
<line x1="256" y1="296" x2="256" y2="308" stroke="#c09010" stroke-width="1.5" opacity="0.6"/>
<line x1="250" y1="302" x2="262" y2="302" stroke="#c09010" stroke-width="1.5" opacity="0.6"/>

<!-- ── LEFT HAND GRIPPING BROOM ── -->
<!-- Glove, clenched around handle -->
<ellipse cx="181" cy="308" rx="15" ry="11" fill="#0e0e1c" transform="rotate(30,181,308)"/>
<!-- Finger ridges -->
<path d="M 172 301 C 167 294, 164 286, 168 280" stroke="#1c1c2e" stroke-width="4.5" stroke-linecap="round" fill="none"/>
<path d="M 178 299 C 174 292, 172 283, 176 277" stroke="#1a1a2c" stroke-width="4"   stroke-linecap="round" fill="none"/>
<path d="M 184 299 C 181 292, 180 283, 184 278" stroke="#1c1c2e" stroke-width="3.5" stroke-linecap="round" fill="none"/>
<path d="M 190 302 C 188 295, 188 287, 192 282" stroke="#1c1c2e" stroke-width="3.5" stroke-linecap="round" fill="none"/>
<!-- Glove highlight -->
<path d="M 172 300 C 168 293, 165 284, 170 278 L 174 280 C 170 285, 170 293, 174 300 Z" fill="#282838" opacity="0.5"/>

<!-- ── RIGHT HAND (open, hanging) ── -->
<ellipse cx="321" cy="305" rx="15" ry="11" fill="#0e0e1c" transform="rotate(-15,321,305)"/>
<path d="M 330 297 C 336 290, 340 282, 336 276" stroke="#1c1c2e" stroke-width="4.5" stroke-linecap="round" fill="none"/>
<path d="M 324 295 C 329 288, 332 279, 328 273" stroke="#1a1a2c" stroke-width="4"   stroke-linecap="round" fill="none"/>
<path d="M 318 295 C 322 288, 324 279, 320 274" stroke="#1c1c2e" stroke-width="3.5" stroke-linecap="round" fill="none"/>
<path d="M 313 298 C 315 292, 316 284, 312 280" stroke="#1c1c2e" stroke-width="3.5" stroke-linecap="round" fill="none"/>
<!-- Glove highlight -->
<path d="M 332 296 C 337 288, 341 281, 337 275 L 333 277 C 336 282, 334 290, 329 297 Z" fill="#282838" opacity="0.5"/>

<!-- ── BOOTS ── -->
<!-- Right boot (slightly back — walking pose) -->
<path d="M 272 456 C 268 465, 264 476, 264 486 C 264 490, 268 494, 274 494
  L 294 494 C 302 494, 308 490, 308 484 C 308 478, 304 468, 298 458 Z" fill="url(#bootShine)"/>
<!-- Right boot toe cap highlight -->
<path d="M 296 459 C 302 467, 306 476, 306 483 L 298 483 C 298 476, 295 467, 290 459 Z" fill="#1e1e2c" opacity="0.55"/>
<!-- Right boot sole -->
<path d="M 264 490 C 264 494, 268 498, 274 498 L 294 498 C 302 498, 308 494, 308 490 L 264 490 Z" fill="#080808"/>

<!-- Left boot (slightly forward — walking pose) -->
<path d="M 214 452 C 210 462, 206 474, 206 484 C 206 490, 210 494, 216 494
  L 240 494 C 248 494, 254 490, 254 484 C 254 476, 250 464, 244 454 Z" fill="url(#bootShine)"/>
<path d="M 212 462 C 210 470, 208 480, 208 486 L 215 486 C 215 479, 217 469, 219 461 Z" fill="#1e1e2c" opacity="0.55"/>
<path d="M 206 490 C 206 494, 210 498, 216 498 L 240 498 C 248 498, 254 494, 254 490 L 206 490 Z" fill="#080808"/>

<!-- ── HOOD ── -->
<!-- Hood main outer shape — dramatic pointed -->
<path d="
  M 256 48
  C 246 56, 228 70, 212 88
  C 192 110, 180 134, 178 158
  C 176 178, 180 196, 188 210
  C 204 198, 228 190, 256 188
  C 284 190, 308 198, 324 210
  C 332 196, 336 178, 334 158
  C 332 134, 320 110, 300 88
  C 284 70, 266 56, 256 48 Z
" fill="#0e0e20"/>

<!-- Hood inner void (deep shadow) -->
<path d="
  M 256 48
  C 249 59, 234 75, 220 93
  C 203 113, 195 137, 193 160
  C 198 150, 212 140, 228 134
  C 241 129, 250 127, 256 127
  C 262 127, 271 129, 284 134
  C 300 140, 314 150, 319 160
  C 317 137, 309 113, 292 93
  C 278 75, 263 59, 256 48 Z
" fill="#050508"/>

<!-- Hood shoulder overhangs (wrap over shoulders) -->
<path d="M 188 210 C 180 196, 176 180, 176 162 C 176 138, 184 114, 198 96
  L 212 82 C 198 100, 190 126, 188 150 C 186 170, 188 188, 194 202 Z" fill="#0c0c1e"/>
<path d="M 324 210 C 332 196, 336 180, 336 162 C 336 138, 328 114, 314 96
  L 300 82 C 314 100, 322 126, 324 150 C 326 170, 324 188, 318 202 Z" fill="#0c0c1e"/>

<!-- Hood clasp brooch at throat -->
<circle cx="256" cy="218" r="10" fill="#0c0c1c"/>
<circle cx="256" cy="218" r="8"  fill="url(#buckleGold)" opacity="0.88"/>
<circle cx="256" cy="218" r="5"  fill="none" stroke="#50380a" stroke-width="1.5"/>
<circle cx="256" cy="218" r="2.5" fill="#d8a818" opacity="0.8"/>


<!-- ══════════════════════════════════════════════════════
     SKULL FACE — FRIENDLY CARTOON (focal point)
     
     The key to "friendly": 
     - Big warm amber glowing eyes (not cold green)
     - HUGE cartoonish upward-curving grin
     - Warm golden bone color
     - Round, approachable proportions
     ══════════════════════════════════════════════════════ -->

<!-- Face base (warm ivory-gold, lit from the amber halo behind) -->
<ellipse cx="256" cy="166" rx="40" ry="45" fill="url(#skullBase)" opacity="0.97"/>

<!-- Skull temple shadows -->
<ellipse cx="224" cy="168" rx="14" ry="18" fill="#b07010" opacity="0.28"/>
<ellipse cx="288" cy="168" rx="14" ry="18" fill="#b07010" opacity="0.28"/>

<!-- Skull cheekbone structure (slightly raised) -->
<path d="M 222 182 C 218 177, 217 171, 220 167" stroke="#c08820" stroke-width="3" fill="none" opacity="0.35" stroke-linecap="round"/>
<path d="M 290 182 C 294 177, 295 171, 292 167" stroke="#c08820" stroke-width="3" fill="none" opacity="0.35" stroke-linecap="round"/>

<!-- Forehead coronal suture line (friendly skull detail) -->
<path d="M 244 131 Q 248 127 252 131 Q 256 127 260 131 Q 264 127 268 131"
  stroke="#c09820" stroke-width="1.8" fill="none" opacity="0.5"/>

<!-- EYE SOCKETS — large, cartoonishly round for friendly look -->
<!-- Left eye socket -->
<ellipse cx="240" cy="165" rx="15" ry="16.5" fill="#180a00"/>
<!-- Left eye glow (amber-orange warmth) -->
<ellipse cx="240" cy="165" rx="10" ry="11"   fill="url(#eyeWarm)" filter="url(#eyeGlow)" opacity="1.0"/>
<!-- Left eye bright iris -->
<ellipse cx="240" cy="165" rx="6"  ry="6.5"  fill="#ffdd60" opacity="0.88"/>
<!-- Left eye sparkle (friendly highlight) -->
<circle  cx="235" cy="160" r="2.5" fill="#ffffff" opacity="0.85"/>
<circle  cx="244" cy="169" r="1.2" fill="#ffffff" opacity="0.50"/>

<!-- Right eye socket -->
<ellipse cx="272" cy="165" rx="15" ry="16.5" fill="#180a00"/>
<!-- Right eye glow -->
<ellipse cx="272" cy="165" rx="10" ry="11"   fill="url(#eyeWarm)" filter="url(#eyeGlow)" opacity="1.0"/>
<ellipse cx="272" cy="165" rx="6"  ry="6.5"  fill="#ffdd60" opacity="0.88"/>
<circle  cx="267" cy="160" r="2.5" fill="#ffffff" opacity="0.85"/>
<circle  cx="276" cy="169" r="1.2" fill="#ffffff" opacity="0.50"/>

<!-- Nose cavity: friendly upturned triangle -->
<path d="M 252 178 L 256 184 L 260 178 Q 258 181 256 179 Q 254 181 252 178 Z" fill="#180a00" opacity="0.72"/>

<!-- ── BIG CARTOONISH FRIENDLY GRIN ── -->
<!-- Jaw/chin shadow to give depth below the smile -->
<path d="M 232 192 Q 256 208 280 192 L 280 200 Q 256 216 232 200 Z" fill="#150900" opacity="0.55"/>
<!-- Smile upper lip line (curved nicely upward at corners) -->
<path d="M 232 190 Q 244 186 256 186 Q 268 186 280 190" fill="none" stroke="#c08010" stroke-width="2" opacity="0.5"/>
<!-- Wide smile curve (the GRIN) -->
<path d="M 232 190 Q 256 208 280 190" fill="none" stroke="#180a00" stroke-width="2.5" opacity="0.7"/>

<!-- Teeth background -->
<path d="M 232 190 Q 256 208 280 190 L 280 196 Q 256 214 232 196 Z" fill="#180a00" opacity="0.45"/>

<!-- Individual teeth — wide, cartoonish, gleaming -->
<rect x="235" y="189" width="7"   height="10.5" rx="2.5" fill="#f8f4e8" opacity="0.95"/>
<rect x="244" y="188" width="8"   height="11.5" rx="2.5" fill="#ffffff"  opacity="0.96"/>
<rect x="253" y="187" width="8"   height="12"   rx="2.5" fill="#ffffff"  opacity="0.96"/>
<rect x="262" y="188" width="8"   height="11.5" rx="2.5" fill="#ffffff"  opacity="0.96"/>
<rect x="271" y="189" width="7"   height="10.5" rx="2.5" fill="#f8f4e8" opacity="0.95"/>
<!-- Tooth shine highlights -->
<rect x="236" y="190" width="3" height="4" rx="1" fill="#ffffff" opacity="0.45"/>
<rect x="245" y="189" width="3" height="4" rx="1" fill="#ffffff" opacity="0.45"/>
<rect x="254" y="188" width="3" height="4" rx="1" fill="#ffffff" opacity="0.45"/>
<rect x="263" y="189" width="3" height="4" rx="1" fill="#ffffff" opacity="0.45"/>
<rect x="272" y="190" width="3" height="4" rx="1" fill="#ffffff" opacity="0.45"/>
<!-- Tooth gaps (dark vertical lines) -->
<line x1="242"   y1="189" x2="242"   y2="199" stroke="#180a00" stroke-width="2"/>
<line x1="251"   y1="188" x2="251"   y2="199.5" stroke="#180a00" stroke-width="2"/>
<line x1="261"   y1="188" x2="261"   y2="199.5" stroke="#180a00" stroke-width="2"/>
<line x1="270"   y1="189" x2="270"   y2="199" stroke="#180a00" stroke-width="2"/>

<!-- Smile corner dimples (key to the "friendly" read) -->
<path d="M 229 190 C 225 188, 224 193, 227 196" stroke="#b07010" stroke-width="2" fill="none" opacity="0.6" stroke-linecap="round"/>
<path d="M 283 190 C 287 188, 288 193, 285 196" stroke="#b07010" stroke-width="2" fill="none" opacity="0.6" stroke-linecap="round"/>

<!-- Subtle "rosy cheek" glow under eyes (extra friendly touch) -->
<ellipse cx="228" cy="186" rx="10" ry="7" fill="#e06020" opacity="0.12"/>
<ellipse cx="284" cy="186" rx="10" ry="7" fill="#e06020" opacity="0.12"/>


<!-- ══════════════════════════════════════════════
     BROOM HEAD — street sweeper wide-fan bristles
     Attached to handle at ~(90, 450)
     ══════════════════════════════════════════════ -->
<!-- Ferrule (metal band where bristles meet handle) -->
<ellipse cx="92" cy="446" rx="16" ry="8"  fill="url(#ferrule)" transform="rotate(35,92,446)"/>
<ellipse cx="92" cy="446" rx="13" ry="5.5" fill="none" stroke="#b0b0c0" stroke-width="1.8" transform="rotate(35,92,446)"/>
<ellipse cx="86" cy="455" rx="16" ry="7.5" fill="url(#ferrule)" transform="rotate(35,86,455)" opacity="0.8"/>
<ellipse cx="86" cy="455" rx="12" ry="5"   fill="none" stroke="#909098" stroke-width="1.5" transform="rotate(35,86,455)"/>

<!-- Bristle backing block (wide rectangular body, angled) -->
<path d="
  M 70 445
  C 64 438, 59 430, 62 422
  L 124 462
  C 136 478, 132 494, 118 500
  L 66 468
  C 58 460, 60 452, 70 445 Z
" fill="url(#bristleGrad)"/>

<!-- Bristle block side highlight -->
<path d="M 62 423 C 63 431, 66 440, 70 447 L 74 443 C 70 437, 67 428, 67 421 Z" fill="#e8c040" opacity="0.3"/>

<!-- Individual bristle strands — dense, like a street sweeper -->
<g stroke="#7a5010" stroke-width="2.2" stroke-linecap="round" opacity="0.80">
  <line x1="65"  y1="432" x2="68"  y2="500"/>
  <line x1="71"  y1="438" x2="75"  y2="502"/>
  <line x1="77"  y1="443" x2="82"  y2="503"/>
  <line x1="83"  y1="447" x2="89"  y2="504"/>
  <line x1="89"  y1="451" x2="96"  y2="504"/>
  <line x1="95"  y1="454" x2="103" y2="504"/>
  <line x1="101" y1="456" x2="110" y2="503"/>
  <line x1="107" y1="458" x2="117" y2="501"/>
  <line x1="113" y1="459" x2="123" y2="498"/>
  <line x1="119" y1="460" x2="128" y2="493"/>
</g>
<!-- Lighter bristle highlights (alternating) -->
<g stroke="#d4a030" stroke-width="1.2" stroke-linecap="round" opacity="0.5">
  <line x1="68"  y1="436" x2="71"  y2="501"/>
  <line x1="80"  y1="445" x2="85"  y2="503"/>
  <line x1="92"  y1="453" x2="99"  y2="504"/>
  <line x1="104" y1="457" x2="113" y2="502"/>
  <line x1="116" y1="460" x2="126" y2="496"/>
</g>

<!-- Bristle tip ragged uneven edge -->
<path d="
  M 59 424 L 63 435 L 67 426 L 72 440 L 77 430
  L 82 444 L 87 433 L 93 448 L 98 437
  L 104 451 L 110 442 L 116 455 L 122 447 L 128 492
  L 118 500 L 108 503 L 97 504 L 86 503
  L 75 501 L 65 498 L 57 488 L 54 474 L 57 458 Z
" fill="url(#bristleGrad)" opacity="0.9"/>

<!-- Bristle tip golden highlight line -->
<path d="M 60 425 L 64 434 L 68 427 L 73 439 L 78 430 L 83 443 L 88 433
  L 94 447 L 99 438 L 105 450 L 111 442 L 117 454 L 123 447"
  stroke="#f0d050" stroke-width="2" fill="none" opacity="0.45"/>

<!-- Dust cloud swept up by broom -->
<ellipse cx="88"  cy="508" rx="42" ry="9"  fill="#6a4818" opacity="0.22" clip-path="url(#rim)"/>
<ellipse cx="70"  cy="504" rx="25" ry="6"  fill="#8a6828" opacity="0.16" clip-path="url(#rim)"/>
<circle  cx="60"  cy="500" r="2.5" fill="#a08030" opacity="0.28" clip-path="url(#rim)"/>
<circle  cx="100" cy="506" r="2"   fill="#908020" opacity="0.22" clip-path="url(#rim)"/>
<circle  cx="120" cy="502" r="1.8" fill="#b09030" opacity="0.2"  clip-path="url(#rim)"/>
<circle  cx="78"  cy="497" r="1.5" fill="#c0a040" opacity="0.2"  clip-path="url(#rim)"/>

</g>

<!-- ── BORDER RING ── -->
<circle cx="256" cy="256" r="250" fill="none" stroke="#0e0806" stroke-width="8"/>
<circle cx="256" cy="256" r="246" fill="none" stroke="#2a1a06" stroke-width="2.5" opacity="0.7"/>
</svg>
